<?xml version="1.0" encoding="UTF-8"?>
<svg width="355px" height="293px" viewBox="0 0 355 293" version="1.1" xmlns="http://www.w3.org/2000/svg" xmlns:xlink="http://www.w3.org/1999/xlink">
    <!-- Generator: Sketch 42 (36781) - http://www.bohemiancoding.com/sketch -->
    <title>data-science-analytics</title>
    <desc>Created with Sketch.</desc>
    <defs></defs>
    <g id="Page-1" stroke="none" stroke-width="1" fill="none" fill-rule="evenodd">
        <g id="illustrations" transform="translate(-17016.000000, 0.000000)">
            <g id="data-science-analytics" transform="translate(17016.000000, 0.000000)">
                <g id="Group">
                    <g transform="translate(76.000000, 120.000000)">
                        <g fill="#42545E">
                            <path d="M222.551,123.715 L218.972,123.715 L218.972,9.339 C218.972,8.067 218.466,6.852 217.551,5.922 C216.636,5.019 215.414,4.51 214.133,4.51 L28.906,4.51 C27.633,4.51 26.387,5.028 25.49,5.929 C24.57,6.848 24.066,8.056 24.066,9.339 L24.066,123.714 L20.486,123.714 L20.486,9.339 C20.486,7.099 21.363,4.99 22.957,3.401 C24.516,1.833 26.686,0.931 28.905,0.931 L214.132,0.931 C216.36,0.931 218.473,1.805 220.085,3.393 C221.681,5.018 222.55,7.122 222.55,9.339 L222.55,123.715 L222.551,123.715 Z" id="Shape"></path>
                            <path d="M232.108,143.161 L10.947,143.161 C8.121,143.161 5.453,142.059 3.435,140.058 C1.429,138.056 0.326,135.388 0.326,132.544 L0.326,121.92 L92.921,121.92 L97.583,127.043 L145.471,127.043 L150.133,121.92 L242.724,121.92 L242.724,132.545 C242.724,135.406 241.618,138.075 239.606,140.062 C237.596,142.06 234.932,143.161 232.108,143.161 Z M3.905,125.499 L3.905,132.545 C3.905,134.432 4.634,136.199 5.959,137.522 C7.298,138.848 9.07,139.583 10.947,139.583 L232.109,139.583 C233.979,139.583 235.749,138.85 237.088,137.52 C238.416,136.208 239.146,134.443 239.146,132.546 L239.146,125.5 L151.716,125.5 L147.054,130.624 L96,130.624 L91.338,125.5 L3.905,125.5 L3.905,125.499 Z" id="Shape"></path>
                            <g transform="translate(20.000000, 130.000000)" id="Rectangle-path">
                                <rect x="0.487" y="0.753" width="3.58" height="3.579"></rect>
                                <rect x="7.646" y="0.753" width="3.579" height="3.579"></rect>
                                <rect x="14.805" y="0.753" width="3.58" height="3.579"></rect>
                            </g>
                            <rect id="Rectangle-path" x="204.653" y="130.753" width="17.897" height="3.579"></rect>
                        </g>
                        <g transform="translate(34.000000, 14.000000)" id="Shape">
                            <polygon fill="#4CBCD0" points="0.231 0.672 0.231 64.329 19.626 64.329 26.091 51.802 45.492 51.802 51.959 38.207 71.357 38.207 77.823 48.676 97.225 48.676 103.69 40.366 123.091 40.366 129.559 26.757 148.956 26.757 155.422 37.229 174.822 37.229 174.828 0.672"></polygon>
                            <polygon fill="#DC2D71" points="0.227 85.308 0.227 97.78 174.822 97.78 174.822 67.61 155.422 67.61 148.956 61.346 129.559 61.346 123.091 70.735 103.69 70.735 97.225 75.919 77.823 75.919 71.359 69.655 51.96 69.655 45.494 79.045 26.093 79.045 19.626 85.308"></polygon>
                        </g>
                        <g transform="translate(34.000000, 21.000000)">
                            <polygon id="Shape" fill="#42545E" points="20.352 80.098 0.227 80.098 0.227 76.519 18.901 76.519 25.369 70.255 44.553 70.255 51.019 60.866 72.084 60.866 78.548 67.129 96.596 67.129 103.062 61.945 122.149 61.945 128.617 52.557 149.682 52.557 156.147 58.82 174.822 58.82 174.822 62.4 154.697 62.4 148.231 56.136 130.497 56.136 124.029 65.525 104.32 65.525 97.853 70.709 77.098 70.709 70.634 64.445 52.901 64.445 46.435 73.835 26.817 73.835"></polygon>
                            <g transform="translate(7.000000, 22.000000)" id="Rectangle-path" fill="#42545E">
                                <rect x="0.386" y="0.308" width="38.106" height="3.58"></rect>
                                <rect x="0.386" y="7.467" width="19.053" height="3.58"></rect>
                            </g>
                            <g transform="translate(52.000000, 0.000000)" id="Rectangle-path" fill="#42545E">
                                <rect x="20.048" y="0.831" width="38.802" height="3.579"></rect>
                                <rect x="0.651" y="7.99" width="38.799" height="3.579"></rect>
                                <rect x="0.651" y="0.831" width="12.932" height="3.579"></rect>
                            </g>
                            <g transform="translate(7.000000, 0.000000)" id="Rectangle-path">
                                <rect fill="#FFFFFF" x="0.386" y="0.831" width="38.106" height="17.897"></rect>
                                <rect fill="#42545E" x="21.229" y="7.99" width="9.098" height="3.579"></rect>
                                <rect fill="#42545E" x="8.552" y="7.99" width="9.097" height="3.579"></rect>
                            </g>
                            <g transform="translate(149.000000, 0.000000)" id="Rectangle-path" fill="#FFFFFF">
                                <rect x="0.766" y="0.831" width="3.579" height="3.579"></rect>
                                <rect x="7.924" y="0.831" width="3.58" height="3.579"></rect>
                                <rect x="15.083" y="0.831" width="3.58" height="3.579"></rect>
                            </g>
                        </g>
                    </g>
                    <g transform="translate(185.000000, 32.000000)">
                        <g transform="translate(17.000000, 27.000000)">
                            <g id="Rectangle-path" fill="#DC2D71">
                                <rect x="0.133" y="23.161" width="10.737" height="14.257"></rect>
                                <rect x="14.449" y="5.637" width="10.738" height="18.558"></rect>
                                <rect x="28.768" y="33.821" width="10.74" height="7.478"></rect>
                                <rect x="43.086" y="11.166" width="10.74" height="7.803"></rect>
                                <rect x="57.405" y="0.614" width="10.739" height="27.698"></rect>
                                <rect x="71.724" y="27.556" width="10.739" height="9.467"></rect>
                                <rect x="86.042" y="16.609" width="10.738" height="17.088"></rect>
                            </g>
                            <g transform="translate(0.000000, 22.000000)" id="Rectangle-path" fill="#E1EEF5">
                                <rect x="0.133" y="18.998" width="10.737" height="7.126"></rect>
                                <rect x="14.449" y="5.774" width="10.738" height="20.35"></rect>
                                <rect x="28.768" y="22.878" width="10.74" height="3.246"></rect>
                                <rect x="43.086" y="0.548" width="10.74" height="25.576"></rect>
                                <rect x="57.405" y="9.892" width="10.739" height="16.232"></rect>
                                <rect x="71.724" y="18.603" width="10.739" height="7.521"></rect>
                                <rect x="86.042" y="15.277" width="10.738" height="10.847"></rect>
                            </g>
                            <path d="M96.78,55.283 L93.201,55.283 L93.201,51.703 L96.78,51.703 L96.78,55.283 Z M89.621,55.283 L86.042,55.283 L86.042,51.703 L89.621,51.703 L89.621,55.283 Z M82.463,55.283 L78.883,55.283 L78.883,51.703 L82.463,51.703 L82.463,55.283 Z M75.304,55.283 L71.724,55.283 L71.724,51.703 L75.304,51.703 L75.304,55.283 Z M68.145,55.283 L64.565,55.283 L64.565,51.703 L68.145,51.703 L68.145,55.283 Z M60.985,55.283 L57.405,55.283 L57.405,51.703 L60.985,51.703 L60.985,55.283 Z M53.826,55.283 L50.247,55.283 L50.247,51.703 L53.826,51.703 L53.826,55.283 Z M46.667,55.283 L43.088,55.283 L43.088,51.703 L46.667,51.703 L46.667,55.283 Z M39.508,55.283 L35.929,55.283 L35.929,51.703 L39.508,51.703 L39.508,55.283 Z M32.349,55.283 L28.77,55.283 L28.77,51.703 L32.349,51.703 L32.349,55.283 Z M25.189,55.283 L21.61,55.283 L21.61,51.703 L25.189,51.703 L25.189,55.283 Z M18.031,55.283 L14.451,55.283 L14.451,51.703 L18.031,51.703 L18.031,55.283 Z M10.872,55.283 L7.292,55.283 L7.292,51.703 L10.872,51.703 L10.872,55.283 Z M3.713,55.283 L0.133,55.283 L0.133,51.703 L3.713,51.703 L3.713,55.283 Z" id="Shape" fill="#42545E"></path>
                        </g>
                        <g id="Shape" fill="#42545E">
                            <polygon points="130.145 174.979 111.761 174.979 111.761 171.4 126.564 171.4 126.564 26.659 104.091 4.185 4.35 4.185 4.35 90.721 0.77 90.721 0.77 0.605 105.572 0.605 130.145 25.176"></polygon>
                            <polygon points="128.354 27.708 103.042 27.708 103.042 2.395 106.621 2.395 106.621 24.128 128.354 24.128"></polygon>
                        </g>
                    </g>
                    <g transform="translate(271.000000, 153.000000)">
                        <g>
                            <rect id="Rectangle-path" fill="#FFFFFF" x="2.496" y="24.813" width="79.715" height="83.559"></rect>
                            <path d="M71.58,2.676 L13.131,2.676 C7.282,2.676 2.496,7.46 2.496,13.303 L2.496,24.813 L82.211,24.813 L82.211,13.303 C82.211,7.46 77.427,2.676 71.58,2.676 Z" id="Shape" fill="#AFAFAF"></path>
                            <rect id="Rectangle-path" fill="#42545E" x="34.602" y="11.957" width="15.505" height="3.579"></rect>
                            <path d="M13.131,130.516 L71.58,130.516 C77.427,130.516 82.211,125.732 82.211,119.886 L82.211,108.371 L2.496,108.371 L2.496,119.886 C2.496,125.731 7.282,130.516 13.131,130.516 Z" id="Shape" fill="#AFAFAF"></path>
                            <g transform="translate(29.000000, 114.000000)" id="Shape">
                                <path d="M23.983,5.444 C23.983,7.391 22.183,8.985 19.983,8.985 L6.721,8.985 C4.521,8.985 2.721,7.391 2.721,5.444 C2.721,3.497 4.521,1.903 6.721,1.903 L19.983,1.903 C22.184,1.903 23.983,3.497 23.983,5.444 Z" fill="#FFFFFF"></path>
                                <path d="M20.436,10.775 L6.274,10.775 C3.328,10.775 0.932,8.383 0.932,5.444 C0.932,2.504 3.328,0.113 6.274,0.113 L20.436,0.113 C23.378,0.113 25.773,2.504 25.773,5.444 C25.772,8.384 23.378,10.775 20.436,10.775 Z M6.273,3.693 C5.318,3.693 4.511,4.495 4.511,5.444 C4.511,6.409 5.3,7.195 6.273,7.195 L20.435,7.195 C21.404,7.195 22.193,6.409 22.193,5.444 C22.193,4.478 21.404,3.693 20.435,3.693 L6.273,3.693 Z" fill="#42545E"></path>
                            </g>
                            <path d="M71.58,132.306 L13.131,132.306 C6.279,132.306 0.706,126.734 0.706,119.886 L0.706,13.303 C0.706,6.456 6.279,0.886 13.131,0.886 L71.58,0.886 C78.428,0.886 84,6.456 84,13.303 L84,119.886 C84,126.733 78.428,132.306 71.58,132.306 Z M13.131,4.465 C8.253,4.465 4.286,8.43 4.286,13.303 L4.286,119.886 C4.286,124.76 8.253,128.727 13.131,128.727 L71.58,128.727 C76.454,128.727 80.421,124.76 80.421,119.886 L80.421,13.303 C80.421,8.43 76.454,4.465 71.58,4.465 L13.131,4.465 Z" id="Shape" fill="#42545E"></path>
                            <rect id="Rectangle-path" fill="#42545E" x="2.496" y="23.023" width="79.715" height="3.579"></rect>
                            <rect id="Rectangle-path" fill="#42545E" x="2.496" y="106.582" width="79.715" height="3.579"></rect>
                        </g>
                        <g transform="translate(18.000000, 33.000000)" id="Shape">
                            <path d="M41.229,30.247 C41.229,41.548 32.074,50.701 20.774,50.701 C15.128,50.701 10.014,48.41 6.312,44.708 L20.774,30.247 L41.229,30.247 Z" fill="#DC2D71"></path>
                            <path d="M20.774,9.792 L20.774,30.247 L6.312,44.708 C2.609,41.017 0.32,35.902 0.32,30.247 C0.32,18.956 9.482,9.792 20.774,9.792 Z" fill="#E1EEF5"></path>
                            <path d="M50.178,24.878 L26.145,24.878 L26.145,0.844 L27.934,0.844 C40.199,0.844 50.178,10.823 50.178,23.088 L50.178,24.878 Z M29.724,21.298 L46.513,21.298 C45.666,12.432 38.589,5.357 29.724,4.508 L29.724,21.298 Z" fill="#42545E"></path>
                        </g>
                        <g transform="translate(27.000000, 88.000000)" id="Rectangle-path" fill="#42545E">
                            <rect x="0.014" y="0.925" width="30.682" height="3.579"></rect>
                            <rect x="7.682" y="8.084" width="15.341" height="3.579"></rect>
                        </g>
                    </g>
                    <g transform="translate(0.000000, 26.000000)">
                        <g transform="translate(0.000000, 37.000000)" fill="#42545E">
                            <rect id="Rectangle-path" transform="translate(129.747416, 23.140184) rotate(45.008103) translate(-129.747416, -23.140184) " x="127.957933" y="9.0173189" width="3.57896571" height="28.2457294"></rect>
                            <rect id="Rectangle-path" transform="translate(22.381918, 23.138727) rotate(45.000000) translate(-22.381918, -23.138727) " x="8.25855365" y="21.3492447" width="28.2467291" height="3.57896568"></rect>
                            <path d="M144.117,16.756 C139.72,16.756 136.141,13.178 136.141,8.78 C136.141,4.382 139.72,0.804 144.117,0.804 C148.514,0.804 152.093,4.382 152.093,8.78 C152.093,13.178 148.515,16.756 144.117,16.756 Z M144.117,4.384 C141.693,4.384 139.721,6.356 139.721,8.78 C139.721,11.204 141.694,13.176 144.117,13.176 C146.54,13.176 148.513,11.204 148.513,8.78 C148.513,6.356 146.541,4.384 144.117,4.384 Z" id="Shape"></path>
                            <path d="M115.395,45.478 C110.998,45.478 107.42,41.9 107.42,37.503 C107.42,33.105 110.998,29.527 115.395,29.527 C119.792,29.527 123.371,33.105 123.371,37.503 C123.371,41.9 119.792,45.478 115.395,45.478 Z M115.395,33.106 C112.972,33.106 110.999,35.078 110.999,37.502 C110.999,39.925 112.971,41.898 115.395,41.898 C117.819,41.898 119.791,39.926 119.791,37.502 C119.792,35.078 117.819,33.106 115.395,33.106 Z" id="Shape"></path>
                            <path d="M36.744,45.478 C32.347,45.478 28.769,41.9 28.769,37.503 C28.769,33.105 32.346,29.527 36.744,29.527 C41.142,29.527 44.72,33.105 44.72,37.503 C44.72,41.9 41.143,45.478 36.744,45.478 Z M36.744,33.106 C34.321,33.106 32.348,35.078 32.348,37.502 C32.348,39.925 34.32,41.898 36.744,41.898 C39.169,41.898 41.14,39.926 41.14,37.502 C41.141,35.078 39.169,33.106 36.744,33.106 Z" id="Shape"></path>
                            <path d="M8.023,16.756 C3.625,16.756 0.047,13.178 0.047,8.78 C0.047,4.382 3.625,0.804 8.023,0.804 C12.421,0.804 15.999,4.382 15.999,8.78 C15.999,13.178 12.421,16.756 8.023,16.756 Z M8.023,4.384 C5.598,4.384 3.627,6.356 3.627,8.78 C3.627,11.204 5.599,13.176 8.023,13.176 C10.447,13.176 12.419,11.204 12.419,8.78 C12.419,6.356 10.448,4.384 8.023,4.384 Z" id="Shape"></path>
                            <rect id="Rectangle-path" transform="translate(46.838653, 27.399644) rotate(45.008103) translate(-46.838653, -27.399644) " x="45.04917" y="19.3037218" width="3.57896571" height="16.1918449"></rect>
                            <rect id="Rectangle-path" transform="translate(105.288931, 27.401820) rotate(45.008103) translate(-105.288931, -27.401820) " x="97.1940084" y="25.6123372" width="16.1898449" height="3.57896571"></rect>
                        </g>
                        <g transform="translate(41.000000, 0.000000)">
                            <rect id="Rectangle-path" fill="#AFAFAF" x="27.908" y="80.688" width="14.318" height="52.159"></rect>
                            <path d="M35.067,70.205 C15.752,70.205 0.039,54.492 0.039,35.177 C0.039,15.862 15.752,0.149 35.067,0.149 C54.382,0.149 70.095,15.862 70.095,35.177 C70.095,54.492 54.382,70.205 35.067,70.205 Z M35.067,3.728 C17.726,3.728 3.618,17.836 3.618,35.177 C3.618,52.518 17.726,66.626 35.067,66.626 C52.408,66.626 66.516,52.518 66.516,35.177 C66.516,17.836 52.408,3.728 35.067,3.728 Z" id="Shape" fill="#42545E"></path>
                            <rect id="Rectangle-path" fill="#42545E" x="33.277" y="68.415" width="3.58" height="12.272"></rect>
                            <rect id="Rectangle-path" fill="#42545E" x="24.84" y="78.898" width="20.455" height="3.58"></rect>
                            <rect id="Rectangle-path" fill="#42545E" x="24.84" y="86.057" width="20.455" height="3.58"></rect>
                        </g>
                        <g transform="translate(53.000000, 12.000000)" id="Shape">
                            <path d="M6.798,39.447 C-2.193,30.457 -2.192,15.893 6.798,6.904 C11.291,2.412 17.18,0.167 23.07,0.168 L23.069,23.176 L6.798,39.447 Z" fill="#DC2D71"></path>
                            <path d="M39.341,39.447 L23.069,23.176 L23.07,0.168 C28.954,0.159 34.842,2.405 39.341,6.904 C48.324,15.887 48.325,30.464 39.341,39.447 Z" fill="#4CBCD0"></path>
                            <path d="M23.071,47.977 C16.446,47.977 10.217,45.397 5.533,40.713 L4.267,39.447 L23.069,20.644 L41.871,39.447 L40.606,40.713 C35.923,45.397 29.695,47.977 23.071,47.977 Z M9.382,39.395 C13.206,42.633 18.003,44.397 23.071,44.397 C28.138,44.397 32.935,42.633 36.758,39.395 L23.069,25.707 L9.382,39.395 Z" fill="#42545E"></path>
                        </g>
                    </g>
                    <g transform="translate(28.000000, 274.000000)">
                        <rect id="Rectangle-path" fill="#4CBCD0" x="24.645" y="2.1" width="143.786" height="14.833"></rect>
                        <path d="M2.393,5.277 C2.393,4.465 2.703,3.651 3.325,3.03 C3.946,2.408 4.76,2.099 5.572,2.099 L9.81,2.099 L9.81,16.932 L5.572,16.932 C4.76,16.932 3.946,16.62 3.325,15.999 C2.703,15.38 2.393,14.564 2.393,13.754 L2.393,5.277 L2.393,5.277 Z" id="Shape" fill="#AFAFAF"></path>
                        <g fill="#42545E">
                            <polygon id="Shape" points="168.996 18.631 167.863 15.234 185.021 9.517 167.863 3.797 168.996 0.401 196.344 9.519"></polygon>
                            <rect id="Rectangle-path" x="181.484" y="7.045" width="3.579" height="4.939"></rect>
                            <path d="M168.431,18.723 L24.645,18.723 C23.657,18.723 22.855,17.92 22.855,16.933 L22.855,2.1 C22.855,1.112 23.657,0.31 24.645,0.31 L168.431,0.31 C169.417,0.31 170.22,1.112 170.22,2.1 L170.22,16.933 C170.22,17.92 169.417,18.723 168.431,18.723 Z M26.434,15.143 L166.641,15.143 L166.641,3.889 L26.434,3.889 L26.434,15.143 Z" id="Shape"></path>
                            <rect id="Rectangle-path" x="24.645" y="7.727" width="143.786" height="3.579"></rect>
                            <path d="M26.434,18.723 L8.02,18.723 L8.02,0.31 L26.434,0.31 L26.434,18.723 L26.434,18.723 Z M11.6,15.143 L22.855,15.143 L22.855,3.889 L11.6,3.889 L11.6,15.143 Z" id="Shape"></path>
                            <path d="M11.6,18.723 L5.573,18.723 C4.247,18.723 3,18.205 2.06,17.266 C1.122,16.332 0.604,15.084 0.604,13.755 L0.604,5.277 C0.604,3.95 1.122,2.701 2.061,1.763 C2.999,0.825 4.246,0.309 5.573,0.309 L11.6,0.309 L11.6,18.723 Z M5.572,3.889 C5.201,3.889 4.852,4.034 4.59,4.295 C4.327,4.559 4.183,4.906 4.183,5.277 L4.183,13.755 C4.183,14.125 4.327,14.472 4.587,14.732 C4.854,14.999 5.202,15.143 5.572,15.143 L8.02,15.143 L8.02,3.889 L5.572,3.889 Z" id="Shape"></path>
                            <rect id="Rectangle-path" x="15.438" y="2.1" width="3.58" height="14.833"></rect>
                        </g>
                    </g>
                    <g transform="translate(0.000000, 164.000000)">
                        <polygon id="Shape" fill="#DC2D71" points="15.45 57.189 38.675 9.538 61.9 57.189"></polygon>
                        <polygon id="Shape" fill="#E1EEF5" points="49.443 57.189 67.87 19.387 86.294 57.189"></polygon>
                        <polygon id="Shape" fill="#4CBCD0" points="0 57.189 12.225 32.109 24.45 57.189"></polygon>
                        <rect id="Rectangle-path" fill="#42545E" x="0" y="60.684" width="86.294" height="3.579"></rect>
                        <g fill="#42545E">
                            <polygon id="Shape" points="37.41 29.126 19.612 11.328 0 11.328 0 7.748 21.095 7.748 39.94 26.595"></polygon>
                            <rect id="Rectangle-path" x="0" y="0.59" width="20.354" height="3.579"></rect>
                        </g>
                    </g>
                    <g transform="translate(129.000000, 0.000000)" fill="#42545E">
                        <rect id="Rectangle-path" transform="translate(15.815440, 15.365166) rotate(45.008103) translate(-15.815440, -15.365166) " x="14.0259574" y="-3.43715337" width="3.57896571" height="37.6046397"></rect>
                        <g id="Shape">
                            <path d="M24.102,30.448 C20.35,30.448 17.296,27.395 17.296,23.642 C17.296,19.892 20.349,16.84 24.102,16.84 C27.855,16.84 30.908,19.891 30.908,23.642 C30.908,27.395 27.854,30.448 24.102,30.448 Z M24.102,20.419 C22.323,20.419 20.876,21.864 20.876,23.641 C20.876,25.42 22.323,26.868 24.102,26.868 C25.881,26.868 27.328,25.42 27.328,23.641 C27.328,21.865 25.881,20.419 24.102,20.419 Z"></path>
                            <path d="M7.542,13.886 C3.79,13.886 0.737,10.833 0.737,7.08 C0.737,3.33 3.79,0.278 7.542,0.278 C11.292,0.278 14.344,3.33 14.344,7.08 C14.344,10.833 11.293,13.886 7.542,13.886 Z M7.542,3.857 C5.763,3.857 4.316,5.302 4.316,7.08 C4.316,8.859 5.763,10.306 7.542,10.306 C9.319,10.306 10.764,8.859 10.764,7.08 C10.765,5.303 9.319,3.857 7.542,3.857 Z"></path>
                        </g>
                    </g>
                    <g transform="translate(181.000000, 12.000000)" id="Rectangle-path" fill="#42545E">
                        <rect x="5.792" y="0.492" width="3.58" height="14.32"></rect>
                        <rect x="0.423" y="5.866" width="14.318" height="3.58"></rect>
                    </g>
                    <g transform="translate(13.000000, 135.000000)" id="Rectangle-path" fill="#42545E">
                        <rect transform="translate(6.340014, 6.829000) rotate(45.000000) translate(-6.340014, -6.829000) " x="4.55003107" y="-0.330931435" width="3.57996567" height="14.3198627"></rect>
                        <rect transform="translate(6.337932, 6.831453) rotate(45.000000) translate(-6.337932, -6.831453) " x="-0.820999395" y="5.04197061" width="14.3178627" height="3.57896568"></rect>
                    </g>
                    <path d="M173.605,92.968 C173.605,98.05 169.481,102.173 164.4,102.173 C159.318,102.173 155.195,98.05 155.195,92.968 C155.195,87.884 159.318,83.763 164.4,83.763 C169.481,83.763 173.605,87.883 173.605,92.968 Z" id="Shape" fill="#AFAFAF"></path>
                    <path d="M37.81,259.822 C32.875,259.822 28.861,255.807 28.861,250.874 C28.861,245.939 32.875,241.925 37.81,241.925 C42.744,241.925 46.759,245.94 46.759,250.874 C46.759,255.808 42.744,259.822 37.81,259.822 Z M37.81,245.504 C34.849,245.504 32.441,247.913 32.441,250.874 C32.441,253.834 34.849,256.243 37.81,256.243 C40.771,256.243 43.179,253.834 43.179,250.874 C43.179,247.913 40.771,245.504 37.81,245.504 Z" id="Shape" fill="#42545E"></path>
                    <path d="M15.501,263.146 C15.501,265.966 13.209,268.259 10.386,268.259 C7.566,268.259 5.273,265.966 5.273,263.146 C5.273,260.324 7.565,258.032 10.386,258.032 C13.209,258.032 15.501,260.324 15.501,263.146 Z" id="Shape" fill="#AFAFAF"></path>
                    <g transform="translate(327.000000, 104.000000)" id="Rectangle-path" fill="#42545E">
                        <rect x="0.643" y="0.734" width="25.568" height="3.579"></rect>
                        <rect x="0.643" y="7.893" width="15.44" height="3.58"></rect>
                    </g>
                    <path d="M312.589,21.746 C309.697,21.746 306.977,20.619 304.933,18.574 C303.563,17.205 301.744,16.451 299.806,16.451 C297.869,16.451 296.05,17.205 294.68,18.574 L292.149,16.043 C294.195,13.998 296.914,12.871 299.806,12.871 C302.7,12.871 305.418,13.997 307.464,16.043 C308.832,17.412 310.653,18.167 312.589,18.167 C314.527,18.167 316.347,17.413 317.717,16.043 L320.248,18.574 C318.202,20.62 315.483,21.746 312.589,21.746 Z" id="Shape" fill="#42545E"></path>
                </g>
            </g>
        </g>
    </g>
</svg>